
<svg xmlns="http://www.w3.org/2000/svg" viewBox="0 0 1440 320"><path fill="#fff" fill-opacity="1" d="M0,192L8,192C16,192,32,192,48,192C64,192,80,192,96,181.3C112,171,128,149,144,133.3C160,117,176,107,192,138.7C208,171,224,245,240,240C256,235,272,149,288,112C304,75,320,85,336,112C352,139,368,181,384,181.3C400,181,416,139,432,133.3C448,128,464,160,480,170.7C496,181,512,171,528,170.7C544,171,560,181,576,160C592,139,608,85,624,74.7C640,64,656,96,672,112C688,128,704,128,720,149.3C736,171,752,213,768,213.3C784,213,800,171,816,165.3C832,160,848,192,864,192C880,192,896,160,912,154.7C928,149,944,171,960,197.3C976,224,992,256,1008,224C1024,192,1040,96,1056,64C1072,32,1088,64,1104,112C1120,160,1136,224,1152,229.3C1168,235,1184,181,1200,138.7C1216,96,1232,64,1248,42.7C1264,21,1280,11,1296,58.7C1312,107,1328,213,1344,213.3C1360,213,1376,107,1392,85.3C1408,64,1424,128,1432,160L1440,192L1440,0L1432,0C1424,0,1408,0,1392,0C1376,0,1360,0,1344,0C1328,0,1312,0,1296,0C1280,0,1264,0,1248,0C1232,0,1216,0,1200,0C1184,0,1168,0,1152,0C1136,0,1120,0,1104,0C1088,0,1072,0,1056,0C1040,0,1024,0,1008,0C992,0,976,0,960,0C944,0,928,0,912,0C896,0,880,0,864,0C848,0,832,0,816,0C800,0,784,0,768,0C752,0,736,0,720,0C704,0,688,0,672,0C656,0,640,0,624,0C608,0,592,0,576,0C560,0,544,0,528,0C512,0,496,0,480,0C464,0,448,0,432,0C416,0,400,0,384,0C368,0,352,0,336,0C320,0,304,0,288,0C272,0,256,0,240,0C224,0,208,0,192,0C176,0,160,0,144,0C128,0,112,0,96,0C80,0,64,0,48,0C32,0,16,0,8,0L0,0Z"></path></svg>
