<svg xmlns="http://www.w3.org/2000/svg" viewBox="0 0 1440 220">
  <path fill="#fff" fill-opacity="1" d="M0,192L8,192C16,192,32,192,48,192C64,192,80,192,96,181.3C112,171,128,149,144,133.3C160,117,176,107,192,138.7C208,171,224,245,240,240C256,235,272,149,288,112C304,75,320,85,336,112C352,139,368,181,384,181.3C400,181,416,139,432,133.3C448,128,464,160,480,170.7C496,181,512,171,528,170.7C544,171,560,181,576,160C592,139,608,85,624,74.7C640,64,656,96,672,112C688,128,704,128,720,149.3C736,171,752,213,768,213.3C784,213,800,171,816,165.3C832,160,848,192,864,192C880,192,896,160,912,154.7C928,149,944,171,960,197.3C976,224,992,256,1008,224C1024,192,1040,96,1056,64C1072,32,1088,64,1104,112C1120,160,1136,224,1152,229.3C1168,235,1184,181,1200,138.7C1216,96,1232,64,1248,42.7C1264,21,1280,11,1296,58.7C1312,107,1328,213,1344,213.3C1360,213,1376,107,1392,85.3C1408,64,1424,128,1432,160L1440,192L1440,320L1432,320C1424,320,1408,320,1392,320C1376,320,1360,320,1344,320C1328,320,1312,320,1296,320C1280,320,1264,320,1248,320C1232,320,1216,320,1200,320C1184,320,1168,320,1152,320C1136,320,1120,320,1104,320C1088,320,1072,320,1056,320C1040,320,1024,320,1008,320C992,320,976,320,960,320C944,320,928,320,912,320C896,320,880,320,864,320C848,320,832,320,816,320C800,320,784,320,768,320C752,320,736,320,720,320C704,320,688,320,672,320C656,320,640,320,624,320C608,320,592,320,576,320C560,320,544,320,528,320C512,320,496,320,480,320C464,320,448,320,432,320C416,320,400,320,384,320C368,320,352,320,336,320C320,320,304,320,288,320C272,320,256,320,240,320C224,320,208,320,192,320C176,320,160,320,144,320C128,320,112,320,96,320C80,320,64,320,48,320C32,320,16,320,8,320L0,320Z"></path>
</svg>