<svg width="80" height="81" viewBox="0 0 80 81" fill="none" xmlns="http://www.w3.org/2000/svg">
<path d="M73.3333 30.5002V23.8335H66.6667V30.5002H60V37.1668H66.6667V43.8335H73.3333V37.1668H80V30.5002H73.3333Z" fill="#41349D"/>
<path d="M26.6667 40.5002C34.0333 40.5002 40 34.5335 40 27.1668C40 19.8002 34.0333 13.8335 26.6667 13.8335C19.3 13.8335 13.3333 19.8002 13.3333 27.1668C13.3333 34.5335 19.3 40.5002 26.6667 40.5002ZM26.6667 20.5002C30.3333 20.5002 33.3333 23.5002 33.3333 27.1668C33.3333 30.8335 30.3333 33.8335 26.6667 33.8335C23 33.8335 20 30.8335 20 27.1668C20 23.5002 23 20.5002 26.6667 20.5002Z" fill="#41349D"/>
<path d="M26.6667 43.8335C17.7667 43.8335 0 48.3002 0 57.1668V67.1668H53.3333V57.1668C53.3333 48.3002 35.5667 43.8335 26.6667 43.8335ZM46.6667 60.5002H6.66667V57.2002C7.33333 54.8002 17.6667 50.5002 26.6667 50.5002C35.6667 50.5002 46 54.8002 46.6667 57.1668V60.5002Z" fill="#41349D"/>
<path d="M41.7 14.0002C44.7667 17.5335 46.6667 22.1335 46.6667 27.1668C46.6667 32.2002 44.7667 36.8002 41.7 40.3335C48.2333 39.5002 53.3333 33.9668 53.3333 27.1668C53.3333 20.3668 48.2333 14.8335 41.7 14.0002Z" fill="#41349D"/>
<path d="M55.1 46.6002C58.0667 49.3668 60 52.8335 60 57.1668V67.1668H66.6667V57.1668C66.6667 52.3335 61.3667 48.8002 55.1 46.6002Z" fill="#41349D"/>
</svg>
